# xmcd CD database file
#
# Track frame offsets:
#	150
#	24648
#	51840
#	78489
#	96062
#	114595
#	133778
#	164143
#	183694
#	211565
#	240089
#	256925
#	274051
#
# Disc length: 3948 seconds
#
# Revision: 2
# Processed by: cddbd v1.5.2PL0 Copyright (c) Steve Scherf et al.
# Submitted via: CDex 1.51
#
DISCID=af0f6a0d
DTITLE=Karrin Allison - By request: the very best of
DYEAR=2009
DGENRE=Jazz
TTITLE0=Night and day
TTITLE1=Moanin'
TTITLE2=What's new
TTITLE3=O pato (The duck)
TTITLE4=Sous le ciel de Paris (Under Paris skies)
TTITLE5=Life is a groove (Jordu)
TTITLE6=Everything must change
TTITLE7=A felicidade (Happiness)
TTITLE8=Sweet home cookin' man
TTITLE9=Nature boy
TTITLE10=And so it goes
TTITLE11=Cherokee
TTITLE12=Next time around (Soultrane)
EXTD=YEAR: 2009
EXTT0=
EXTT1=
EXTT2=
EXTT3=
EXTT4=
EXTT5=
EXTT6=
EXTT7=
EXTT8=
EXTT9=
EXTT10=
EXTT11=
EXTT12=
PLAYORDER=
